<svg width="48" height="48" viewBox="0 0 48 48" fill="none" xmlns="http://www.w3.org/2000/svg">
  <rect width="48" height="48" rx="14" fill="#0C8EE6"/>
  <path d="M11 15.5c0-1.1.9-2 2-2h8c1.7 0 3 1.3 3 3v18c0-1.7-1.3-3-3-3h-8c-1.1 0-2-.9-2-2v-14z" fill="#fff" fill-opacity="0.95"/>
  <path d="M37 15.5c0-1.1-.9-2-2-2h-8c-1.7 0-3 1.3-3 3v18c0-1.7 1.3-3 3-3h8c1.1 0 2-.9 2-2v-14z" fill="#fff" fill-opacity="0.72"/>
  <path d="M15 27l5-5 4 3.5 6-7" stroke="#FF6B52" stroke-width="2.4" stroke-linecap="round" stroke-linejoin="round"/>
  <circle cx="33.5" cy="16.5" r="4.6" fill="#FF6B52"/>
  <circle cx="33.5" cy="16.5" r="1.7" fill="#fff"/>
</svg>
